<svg version="1" xmlns="http://www.w3.org/2000/svg" width="2666.667" height="2666.667" viewBox="0 0 2000.000000 2000.000000"><path d="M1031.7 81.7c67 66.3 106.9 110 148.4 162.3C1300 395.1 1367 544.8 1382.5 696c9.1 89.7-1.4 181.4-31.1 270-16.2 48.5-37.1 94.2-66.5 145.5-57.2 100.2-89.6 183.1-105.4 269.8-29.8 163.8 12.8 313.6 124.5 438.1 36.4 40.5 76.4 75.1 131.9 114l8.4 5.9 8.6-4.2c48.7-24.2 111.1-63.8 159.6-101.5 47.6-36.9 94.2-80.4 134-125 80.6-90.3 146.9-200.1 189.3-313.6 42.6-114.2 63.2-228.6 63.2-351 0-35.7-1-59.1-4.1-92.5-14.9-163.2-70.3-320.9-160.7-457.6-39.4-59.5-78.3-107.1-129.1-158-133-132.9-303.2-226.3-487.5-267.3-64-14.3-128.4-22-192.6-23.2l-30.5-.5 37.2 36.8zm256.9 113.4c297.9 101 523.2 354.5 588.3 661.9 14.4 68 19.8 124.9 18.8 200.2-.5 44.1-1.7 61.9-6.2 98.4-32.3 258.4-174.8 489-392 634.4-16 10.8-42.4 27-43.9 27-1.4 0-22.9-17.7-38.4-31.5-43.1-38.5-74.8-79.6-100.2-129.6-44.8-88.4-53.2-185.5-25.4-295.1 15.9-62.8 41.6-122.8 85.3-199.3 64.2-112.3 99.2-218.7 110.6-336 2.3-22.7 3.1-85 1.6-109.5-10.7-170.7-76.2-335.2-199.4-501-7.1-9.6-14.8-19.6-16.9-22.3-2.2-2.6-3.8-4.7-3.5-4.7.3 0 9.9 3.2 21.3 7.1z"/><path d="M888 49.5C770.9 63.2 666.8 93.4 562.3 144c-46.4 22.5-101.9 55.4-140.8 83.4-6 4.4-12.6 9-14.5 10.3-7.2 4.9-51.7 40.3-57.6 45.8-.6.5-4 3.5-7.4 6.5-3.5 3-6.8 5.9-7.4 6.5-.6.5-6.3 5.7-12.6 11.5-14.8 13.5-44.5 43.2-58.5 58.5-6.1 6.6-11.2 12.2-11.5 12.5-1.9 1.7-29.1 34.3-35.9 43-4.6 5.8-9 11.4-10 12.5-5.2 6.3-27.6 37.8-38.9 54.6C75 627.3 19.2 785.1 4.1 950.5c-6.6 71.8-5.4 146.5 3.5 217.5 24.7 197.4 106.9 381.5 238.1 532.5 11.5 13.3 48.4 52.6 52.7 56.2 1.7 1.4 8.1 7.3 14.1 13.2 51.5 49.7 119.3 99.9 188 139.3 15.6 9 69.2 36.8 70.9 36.8.2 0-3.6-8.7-8.6-19.3-35.9-76.5-53.7-140.8-60.9-219.7-1.6-17.4-1.6-70.4 0-88.5 3-33.7 9.2-70.7 17-101.5 45.6-179.4 173.2-361.7 386.6-552.5 30-26.8 44.5-40.6 58.9-56.4 45.8-49.9 77.7-98.5 101.9-155.1 58.3-136.5 55.3-299.1-8.6-468-31.3-82.6-80.6-169.7-129.6-228.7l-7.6-9.2H914c-3.6.1-15.3 1.1-26 2.4zm-3.4 120.7C933 243.6 970.1 330.5 990.4 418c15.6 67.7 18.7 139.4 8.5 200-12.7 75.4-42.9 140.5-93.8 202-13 15.7-43.8 46.4-72.1 71.6-121.2 108.3-218.4 217.7-288.2 324.4-76.8 117.3-123.5 233.8-140.2 350-5.4 37.3-6 47.2-6.1 97.2v46.7l-4-3.7c-36.2-33.8-66.1-65.6-92.4-98.2-114.6-141.7-182.7-313.7-197.1-497.5-3.1-39.2-2.9-100.9.5-141.5 16.3-197.3 96.8-382.3 230.1-529 16.9-18.6 54-55.2 71.4-70.4 59.7-52.3 126.6-97.1 195.5-131 79-38.9 159.2-64.9 247.5-80.1 10.7-1.8 20.6-3.4 22-3.4 2.2-.1 3.9 2 12.6 15.1z"/></svg>