<svg xmlns="http://www.w3.org/2000/svg" viewBox="0 0 100 100" shape-rendering="geometricPrecision" image-rendering="optimizeQuality">
<g fill="#00a0e3"> 
<path d="M28.6 95C11.6 87 0 69.8 0 50 0 23.5 20.2 2 46 0c6.6 7.7 17.3 30 0 45.4-17.5 15.3-26.5 32-17.4 49.6z"/>
<path fill="#fff" d="M20 83.3v-5C21 63.5 31.8 51 42.5 41.5c6.3-5.5 8.7-12.6 7.4-21-1-4.8-3.5-10.7-6.6-15C21.4 8.5 5 27.5 5 50c0 12.8 5.6 25 15 33.3z"/>
</g>
<g fill="#009746">
<path d="M49.7 0h.3c27.5 0 50 22.4 50 50 0 19.5-11.4 36.5-27.8 44.6-2.7-2-23.5-14.6-8-41.3C79.8 26.6 54.8 5.3 49.7 0z"/>
<path fill="#fff" d="M63.3 7c2.2 3 4.2 6 6 9.2 7 13 7 26.8-.7 39.7-4.4 7.2-7.2 16.3-2.7 25 1.4 3 4 5.2 6.3 7.3 14-8 22.4-22.4 22.4-38.4 0-20.3-13.3-37.3-31.5-43z"/>
</g>
</svg>