<?xml version="1.0" encoding="utf-8"?>
<svg version="1.1" width="22" height="21" viewBox="0 0 195.6 199.9" xmlns="http://www.w3.org/2000/svg" xmlns:xlink="http://www.w3.org/1999/xlink">
<g fill="#326ccd">
<path d="M95.6,73.7c15.2,0,27.5,12.3,27.5,27.5c0,6.4,5.2,11.7,11.7,11.7c6.4,0,11.7-5.2,11.7-11.7
c0-14-5.7-26.7-14.9-35.9c-9.2-9.2-21.9-14.9-35.9-14.9c-6.4,0-11.7,5.2-11.7,11.7C83.9,68.5,89.1,73.7,95.6,73.7z"/>
<path d="M95.6,25.2c41.9,0,76,34.1,76,76c0,6.4,5.2,11.7,11.7,11.7c6.4,0,11.7-5.2,11.7-11.7
c0-27.4-11.1-52.2-29.1-70.2c-18-18-42.8-29.1-70.2-29.1c-6.4,0-11.7,5.2-11.7,11.7C83.9,20,89.1,25.2,95.6,25.2z"/>
<path d="M135.7,196.8c8,0,14.3-2,18.4-6.1l10.9-10.9c3.6-3.6,5.3-8.5,4.7-13.6c-0.6-5-3.4-9.5-7.7-12.2l-32.7-17.1
l-0.2-0.1c-6-2-12.5-0.5-17,4l-6.8,6.8l-0.3,0.2c-4.4,3.7-23.9-5.9-40.2-22.2C49.2,110,45,96.5,49,91.8l7.1-7.1
c4.2-4.2,5.9-10.4,4.2-16.2l0-0.2L42.8,34.8l-0.1-0.1c-2.7-4.3-7.1-7.1-12.2-7.7c-5-0.6-10,1.2-13.6,4.7L6.1,42.7
c-15.5,15.5-1.2,64.5,41.1,106.9C78.5,180.8,113.3,196.8,135.7,196.8z"/>
</g>
</svg>
