<svg width="20" height="20" aria-hidden="true" role="img" xmlns="http://www.w3.org/2000/svg" viewBox="0 0 512 512"><path fill="currentColor" d="M508.757 179.073c4.52,-68.855 -39.285,-131.219 -106.958,-146.79 -51.549,-11.86 -104.665,5.919 -138.57,46.06 -9.298,11.007 -5.115,10.783 -14.134,0.391 -4.71,-5.427 -10.073,-11.615 -15.696,-16.115 -57.401,-45.934 -129.185,-46.185 -184.918,2.555 -56.644,49.537 -53.635,125.224 -27.009,189.783 12.28,29.773 28.062,54.847 47.506,80.355 19.243,25.244 38.993,43.875 60.922,66.229 28.243,28.789 75.981,61.292 114.359,77.124 12.645,5.216 10.331,5.309 22.97,0.208 61.528,-24.827 118.389,-76.04 161.251,-125.583 41.676,-48.172 76.032,-109.549 80.277,-174.217z"></path></svg>