<svg class="header__logo" height="60" width="80" viewBox="750 500 600 100">
<path fill="#2E25D8" d="M1125.9,596.8c-23,17.3-57,18.2-81,2.3c34.6,26.1,87.2,24.6,120.3-3.5 c-5.9,12.7-16.2,23.4-28.7,29.7c8.1-1,16-4,22.7-8.6c-12.9,15.3-32.5,24.8-52.5,25.5c10.8,1.9,22.2,0.3,32.1-4.4 c-21.9,18.9-55,21.1-82.1,10.9c-27.1-10.2-49.1-30.9-67-53.7c-17.9-22.8-32.5-48-49.9-71.2c-9.5-12.6-20.3-25-34.7-31.4 c-23.4-10.5-53.8-1.4-67.6,20.1c-13.8,21.6-9.3,53,10,69.8c-14-9.2-22.8-25.8-22.6-42.5c-2.9,19.7,2.5,40.5,14.6,56.2 c-21-22.6-30.5-55.3-25.1-85.7c-7.6,7.5-12.9,17.2-14.9,27.7c-0.1-16.1,4.7-32.1,13.4-45.6c-25,22.4-33.4,61.4-19.9,92.1 c-17.2-26.1-14.6-62.3,2.6-88.3c17.2-26,47-42.1,77.8-47.1c-29.1-1.6-58.7,10.9-77.9,32.9c17.6-26,46.8-43.8,78-47.7 c31.2-3.8,63.8,6.4,87.2,27.3c19.4,17.4,32.1,41,44.7,63.8c12.7,22.8,26.4,46,47.2,61.7 C1073.4,602.9,1103.2,609.6,1125.9,596.8z"></path>
<path fill="#25A8D8" d="M968.6,618.5c19.5-17.6,35.7-39,47.8-61.7c10.8-20.2,22-41.2,40.4-54.8 c18.4-13.7,46.1-17.7,63.5-2.9c-23-23.7-66.6-13.7-87.9,10.6c10.3-19,31.5-30.9,53-32.4c21.6-1.5,43.1,6.6,60.2,19.9 c-17.2-15.9-40.9-24.6-64.3-23.8c-23.4,0.8-46.4,11.1-62.5,28.1c9.1-14.6,23.3-25.9,39.5-31.7c-13.2,1-26.2,4.9-37.8,11.3 c28.4-23.8,70.2-30.3,104.5-16.2c-21-10.8-45.7-14.5-68.9-10.4c37.8-14.5,84.7,0.4,107.2,34c-13-22.2-35.7-38.6-60.9-44 c28.2,2.3,55.1,17.1,72.1,39.7c-14.6-26.4-41.3-45.8-70.9-51.4s-61.6,2.6-84.9,21.8c-21,17.3-34.1,42-47.2,65.8 c-13,23.8-27.1,48.3-49,64.3s-54.1,21.3-76,5.3c11.5,14.3,30.8,21.8,49,19.1c-17.2,4.7-36.2,2.3-51.7-6.5 c9.2,9.2,20.8,16.1,33.4,19.7c-35.9-5.5-67.5-33.5-77.1-68.5c4.2,28.5,21,54.9,45.1,70.6c-15.6-6.9-29.6-17.5-40.5-30.6 c6.6,9.4,13.2,18.8,19.9,28.3c-14.7-9.2-26.7-22.7-34.2-38.3c8.5,23.1,25.6,43,47.2,54.9c21.6,11.9,47.6,15.7,71.7,10.5 c-9.5,5.8-25.8,7-37,7.4c8.5-0.3,16.5,1,25.2-0.3c9.8-1.5,19.5-4.5,28.5-8.8C941.3,640,955.7,630.1,968.6,618.5z"></path>
<path fill="#25A8D8" d="M1129.2,505.5c9.4,12,14.1,27.5,13.1,42.6c-1,15.2-7.8,29.9-18.7,40.5c8.3-5.7,14.7-13.8,19.1-22.9 c4.4-9,6.8-18.9,7.7-28.9c3.4,25.7-8,52.8-28.8,68.3c19.9-5.8,37.1-20.5,45.2-39.5c8.1-19,6.6-42.1-4.8-59.4 c4,13.4,6.2,28.3,0.4,41.1c1.4-10.3-2-20.8-7.7-29.6c-5.7-8.7-13.6-15.8-21.8-22.1c5.6,6.5,9.3,14.5,10.6,22.9 c-5.2-9-12.9-16.4-21.9-21.4L1129.2,505.5z"></path>
<path fill="#2E25D8" d="M1186.7,541.3c-1.7-6.9-4.9-13.5-9.3-19.1c5.4,12.1,6,26.1,2.8,39c-3.2,12.9-10.2,24.7-18.9,34.7 c7-3.9,12.4-10.2,16.4-17.2c4-7,6.6-14.6,9.2-22.2c1.9,21.2-5.1,43.1-19,59.3c14.4-16.4,24.6-36.6,27.7-58.2 c3.2-21.6-1-44.4-12.7-62.7c2.6,6.7,3.8,14,3.4,21.2c-2.3-9.5-7.4-18.2-14.5-24.9C1181.3,506.1,1186.5,523.6,1186.7,541.3z"></path>
<path fill="#2E25D8" d="M805.8,591c-4.5-11.5-8.5-23.3-10.3-35.5c-1.9-12.2-1.6-24.9,2.2-36.6c-6.5,11.1-9.1,24.5-7.5,37.3 C791.8,569,797.4,581.2,805.8,591z"></path>
</svg>